<mxfile host="app.diagrams.net" modified="2024-04-23T00:53:05.935Z" agent="Mozilla/5.0 (Windows NT 10.0; Win64; x64) AppleWebKit/537.36 (KHTML, like Gecko) Chrome/123.0.0.0 Safari/537.36" version="24.2.8" etag="3kHkBaaxAEKE9ETMc1XY" type="github">
  <diagram name="PÃ¡gina-1" id="6egSOjgE-O1hiDSKdhsU">
    <mxGraphModel>
      <root>
        <mxCell id="0" />
        <mxCell id="1" parent="0" />
      </root>
    </mxGraphModel>
  </diagram>
</mxfile>
